<mxfile host="app.diagrams.net" agent="Mozilla/5.0 (Windows NT 10.0; Win64; x64; rv:139.0) Gecko/20100101 Firefox/139.0" version="26.2.12">
  <diagram name="Страница — 1" id="Mf_--TLKNzcugO1Mt_mn">
    <mxGraphModel dx="1428" dy="751" grid="0" gridSize="10" guides="1" tooltips="1" connect="1" arrows="1" fold="1" page="1" pageScale="1" pageWidth="827" pageHeight="1169" background="none" math="0" shadow="0">
      <root>
        <mxCell id="0" />
        <mxCell id="1" parent="0" />
        <mxCell id="oXhWG6Ju0qooGjyq5Nin-2" value="REST API сервер Apache (REG.RU)" style="swimlane;whiteSpace=wrap;html=1;" vertex="1" parent="1">
          <mxGeometry x="302" y="143" width="224" height="190" as="geometry">
            <mxRectangle x="284" y="130" width="130" height="30" as="alternateBounds" />
          </mxGeometry>
        </mxCell>
        <mxCell id="oXhWG6Ju0qooGjyq5Nin-4" value="&lt;div&gt;&lt;font style=&quot;font-size: 14px;&quot;&gt;База данных&lt;/font&gt;&lt;/div&gt;&lt;div&gt;&lt;font style=&quot;font-size: 14px;&quot;&gt;MySQL&lt;/font&gt;&lt;/div&gt;" style="rounded=0;whiteSpace=wrap;html=1;" vertex="1" parent="oXhWG6Ju0qooGjyq5Nin-2">
          <mxGeometry x="30" y="38" width="163" height="60" as="geometry" />
        </mxCell>
        <mxCell id="oXhWG6Ju0qooGjyq5Nin-6" value="&lt;div&gt;&lt;font style=&quot;font-size: 14px;&quot;&gt;Веб-фреймворк&lt;/font&gt;&lt;/div&gt;&lt;div&gt;&lt;font style=&quot;font-size: 14px;&quot;&gt;Django&lt;/font&gt;&lt;/div&gt;&lt;div&gt;&lt;font style=&quot;font-size: 14px;&quot;&gt;(Python)&lt;/font&gt;&lt;/div&gt;" style="rounded=0;whiteSpace=wrap;html=1;" vertex="1" parent="oXhWG6Ju0qooGjyq5Nin-2">
          <mxGeometry x="30" y="114" width="164" height="60" as="geometry" />
        </mxCell>
        <mxCell id="oXhWG6Ju0qooGjyq5Nin-7" value="&lt;div&gt;&lt;font style=&quot;font-size: 18px;&quot;&gt;REST API&lt;/font&gt;&lt;/div&gt;" style="rounded=0;whiteSpace=wrap;html=1;" vertex="1" parent="1">
          <mxGeometry x="354" y="377" width="120" height="60" as="geometry" />
        </mxCell>
        <mxCell id="oXhWG6Ju0qooGjyq5Nin-8" value="&lt;div&gt;Desktop&lt;/div&gt;&lt;div&gt;Windows&lt;/div&gt;&lt;div&gt;приложение на платформе WPF&lt;/div&gt;&lt;div&gt;(C#)&lt;/div&gt;" style="rounded=0;whiteSpace=wrap;html=1;" vertex="1" parent="1">
          <mxGeometry x="354" y="546" width="120" height="85" as="geometry" />
        </mxCell>
      </root>
    </mxGraphModel>
  </diagram>
</mxfile>
